# xmcd
#
# Track frame offsets:
#	150
#	14452
#	24731
#	36777
#	49928
#	60067
#	69991
#	81293
#	92648
#	107715
#	120062
#	130933
#	144228
#	156948
#	167443
#	177811
#	187663
#	205561
#
# Disc length: 2866
#
# Revision: 2
# Processed by: cddbd v1.5.1PL0 Copyright (c) Steve Scherf et al.
# Submitted via: dBpowerAMP V4.0
# Normalized: r0:TSWAP
#
DISCID=d50b3012
DTITLE=Various Artist - Country - Sound 2 of 4
DYEAR=1900
DGENRE=
TTITLE0=Glen Campbell - Rhinestone Cowboy
TTITLE1=Faron Young - If You Ain't Lovin
TTITLE2=Billie Jo Spears - Look What They've Done To My Song
TTITLE3=Hank Thompson - The Wild Side of Life
TTITLE4=Webb Pierce - I'm In the Jailhouse Now
TTITLE5=Dave Dudley - Six Days on the Road
TTITLE6=Dottie West - Heartbreak USA
TTITLE7=Bobby Bare - That's How I got To Memphis
TTITLE8=Dianna Trask - I Fall To Pieces
TTITLE9=Ferlin Husky - The Letter You Promised To Write
TTITLE10=Joe Stampley - Soul Song
TTITLE11=Roy Clark - Come Live With Me
TTITLE12=Hank Locklin - No One Is Sweeter Than You
TTITLE13=Billie Jo Spears - I'm So Lonesome I Could Cry
TTITLE14=Tommy Overstreet - Ann (Don't Go Runnin')
TTITLE15=Glen Campbell - Gentle On My Mind
TTITLE16=Bill Anderson - A Place In The Country
TTITLE17=George Jones - Sweet Dreams
EXTD=
EXTT0=
EXTT1=
EXTT2=
EXTT3=
EXTT4=
EXTT5=
EXTT6=
EXTT7=
EXTT8=
EXTT9=
EXTT10=
EXTT11=
EXTT12=
EXTT13=
EXTT14=
EXTT15=
EXTT16=
EXTT17=
PLAYORDER=
